ISO-10303-21;
HEADER;
FILE_DESCRIPTION(('ViewDefinition[DesignTransferView]'),'2;1');
FILE_NAME('/dev/null','2026-09-30T23:19:43+03:00',(''),(''),'IfcOpenShell 0.8.5','IfcOpenShell 0.8.5','Nobody');
FILE_SCHEMA(('IFC2X3'));
ENDSEC;
DATA;
#1=IFCPERSON($,'steel-suite',$,$,$,$,$,$);
#2=IFCORGANIZATION($,'steel-suite',$,$,$);
#3=IFCPERSONANDORGANIZATION(#1,#2,$);
#4=IFCAPPLICATION(#2,'1.0','steel-suite mock generator','steel-suite');
#5=IFCOWNERHISTORY(#3,#4,.READWRITE.,.ADDED.,1790799583,#3,#4,1790799583);
#6=IFCPROJECT('3oG1XuC3b8I8ohjpkC7Mg5',#5,'Mock connection',$,$,$,$,(#15),#10);
#7=IFCSIUNIT(*,.LENGTHUNIT.,$,.METRE.);
#8=IFCSIUNIT(*,.AREAUNIT.,$,.SQUARE_METRE.);
#9=IFCSIUNIT(*,.VOLUMEUNIT.,$,.CUBIC_METRE.);
#10=IFCUNITASSIGNMENT((#9,#7,#8));
#11=IFCCARTESIANPOINT((0.,0.,0.));
#12=IFCDIRECTION((0.,0.,1.));
#13=IFCDIRECTION((1.,0.,0.));
#14=IFCAXIS2PLACEMENT3D(#11,#12,#13);
#15=IFCGEOMETRICREPRESENTATIONCONTEXT($,'Model',3,1.0000000000000001E-05,#14,$);
#16=IFCGEOMETRICREPRESENTATIONSUBCONTEXT('Body','Model',*,*,*,*,#15,$,.MODEL_VIEW.,$);
#17=IFCOWNERHISTORY(#3,#4,.READWRITE.,.ADDED.,1790799583,#3,#4,1790799583);
#18=IFCSITE('0fmrhEr_9E5OanrmWGsEoj',#17,'Site',$,$,$,$,$,.ELEMENT.,$,$,$,$,$);
#19=IFCOWNERHISTORY(#3,#4,.READWRITE.,.ADDED.,1790799583,#3,#4,1790799583);
#20=IFCBUILDING('38l4UkW6PFGuTJn_7FX7S1',#19,'Building',$,$,$,$,$,.ELEMENT.,$,$,$);
#21=IFCOWNERHISTORY(#3,#4,.READWRITE.,.ADDED.,1790799583,#3,#4,1790799583);
#22=IFCRELAGGREGATES('3YBNpqqx11dRcE1F3nUGXw',#21,$,$,#6,(#18));
#23=IFCOWNERHISTORY(#3,#4,.READWRITE.,.ADDED.,1790799583,#3,#4,1790799583);
#24=IFCRELAGGREGATES('1QY0R2LZDEtQW6MQaGaw7$',#23,$,$,#18,(#20));
#25=IFCOWNERHISTORY(#3,#4,.READWRITE.,.ADDED.,1790799583,#3,#4,1790799583);
#26=IFCBEAM('02vP5NOQr1mvibuLtUzCNe',#25,'HEA300',$,$,#33,#42,'MB-1');
#27=IFCOWNERHISTORY(#3,#4,.READWRITE.,.MODIFIED.,1790799583,#3,#4,1790799583);
#28=IFCRELCONTAINEDINSPATIALSTRUCTURE('22oiAPiUr9mQo8X0rZwtBk',#27,$,$,(#108,#44,#60,#26,#76,#92),#20);
#29=IFCCARTESIANPOINT((-1.,0.,-0.14999999999999999));
#30=IFCDIRECTION((1.,0.,0.));
#31=IFCDIRECTION((0.,1.,0.));
#32=IFCAXIS2PLACEMENT3D(#29,#30,#31);
#33=IFCLOCALPLACEMENT($,#32);
#34=IFCCARTESIANPOINT((0.,0.));
#35=IFCAXIS2PLACEMENT2D(#34,$);
#36=IFCISHAPEPROFILEDEF(.AREA.,'HEA300',#35,0.29999999999999999,0.29999999999999999,0.0085000000000000006,0.014,0.027);
#37=IFCCARTESIANPOINT((0.,0.,0.));
#38=IFCAXIS2PLACEMENT3D(#37,$,$);
#39=IFCDIRECTION((0.,0.,1.));
#40=IFCEXTRUDEDAREASOLID(#36,#38,#39,2.);
#41=IFCSHAPEREPRESENTATION(#16,'Body','SweptSolid',(#40));
#42=IFCPRODUCTDEFINITIONSHAPE($,$,(#41));
#43=IFCOWNERHISTORY(#3,#4,.READWRITE.,.ADDED.,1790799583,#3,#4,1790799583);
#44=IFCBEAM('2n8IRCfPXD1RMMIHJ7aT2w',#43,'IPE240',$,$,#49,#58,'SB-1');
#45=IFCCARTESIANPOINT((0.,0.01925,-0.14999999999999999));
#46=IFCDIRECTION((0.,1.,0.));
#47=IFCDIRECTION((-1.,0.,0.));
#48=IFCAXIS2PLACEMENT3D(#45,#46,#47);
#49=IFCLOCALPLACEMENT($,#48);
#50=IFCCARTESIANPOINT((0.,0.));
#51=IFCAXIS2PLACEMENT2D(#50,$);
#52=IFCISHAPEPROFILEDEF(.AREA.,'IPE240',#51,0.12,0.23999999999999999,0.0061999999999999998,0.0097999999999999997,0.014999999999999999);
#53=IFCCARTESIANPOINT((0.,0.,0.));
#54=IFCAXIS2PLACEMENT3D(#53,$,$);
#55=IFCDIRECTION((0.,0.,1.));
#56=IFCEXTRUDEDAREASOLID(#52,#54,#55,1.5);
#57=IFCSHAPEREPRESENTATION(#16,'Body','SweptSolid',(#56));
#58=IFCPRODUCTDEFINITIONSHAPE($,$,(#57));
#59=IFCOWNERHISTORY(#3,#4,.READWRITE.,.ADDED.,1790799583,#3,#4,1790799583);
#60=IFCPLATE('00vRoZKCv3GAcKvac4ikef',#59,'PL10',$,$,#65,#74,'FP-1');
#61=IFCCARTESIANPOINT((0.0080999999999999996,0.059249999999999997,-0.14999999999999999));
#62=IFCDIRECTION((1.,0.,0.));
#63=IFCDIRECTION((0.,1.,0.));
#64=IFCAXIS2PLACEMENT3D(#61,#62,#63);
#65=IFCLOCALPLACEMENT($,#64);
#66=IFCCARTESIANPOINT((0.,0.));
#67=IFCAXIS2PLACEMENT2D(#66,$);
#68=IFCRECTANGLEPROFILEDEF(.AREA.,'PL10',#67,0.11,0.17999999999999999);
#69=IFCCARTESIANPOINT((0.,0.,-0.0050000000000000001));
#70=IFCAXIS2PLACEMENT3D(#69,$,$);
#71=IFCDIRECTION((0.,0.,1.));
#72=IFCEXTRUDEDAREASOLID(#68,#70,#71,0.01);
#73=IFCSHAPEREPRESENTATION(#16,'Body','SweptSolid',(#72));
#74=IFCPRODUCTDEFINITIONSHAPE($,$,(#73));
#75=IFCOWNERHISTORY(#3,#4,.READWRITE.,.ADDED.,1790799583,#3,#4,1790799583);
#76=IFCMECHANICALFASTENER('3WInqz0Hb7KfvR6MwHRwCg',#75,'M20 8.8',$,$,#81,#90,'B-1',$,$);
#77=IFCCARTESIANPOINT((-0.025000000000000001,0.07425000000000001,-0.22));
#78=IFCDIRECTION((1.,0.,0.));
#79=IFCDIRECTION((0.,1.,0.));
#80=IFCAXIS2PLACEMENT3D(#77,#78,#79);
#81=IFCLOCALPLACEMENT($,#80);
#82=IFCCARTESIANPOINT((0.,0.));
#83=IFCAXIS2PLACEMENT2D(#82,$);
#84=IFCCIRCLEPROFILEDEF(.AREA.,'M20',#83,0.01);
#85=IFCCARTESIANPOINT((0.,0.,0.));
#86=IFCAXIS2PLACEMENT3D(#85,$,$);
#87=IFCDIRECTION((0.,0.,1.));
#88=IFCEXTRUDEDAREASOLID(#84,#86,#87,0.050000000000000003);
#89=IFCSHAPEREPRESENTATION(#16,'Body','SweptSolid',(#88));
#90=IFCPRODUCTDEFINITIONSHAPE($,$,(#89));
#91=IFCOWNERHISTORY(#3,#4,.READWRITE.,.ADDED.,1790799583,#3,#4,1790799583);
#92=IFCMECHANICALFASTENER('3v7YQSH1H6UBvf3KnYNxRr',#91,'M20 8.8',$,$,#97,#106,'B-2',$,$);
#93=IFCCARTESIANPOINT((-0.025000000000000001,0.07425000000000001,-0.14999999999999999));
#94=IFCDIRECTION((1.,0.,0.));
#95=IFCDIRECTION((0.,1.,0.));
#96=IFCAXIS2PLACEMENT3D(#93,#94,#95);
#97=IFCLOCALPLACEMENT($,#96);
#98=IFCCARTESIANPOINT((0.,0.));
#99=IFCAXIS2PLACEMENT2D(#98,$);
#100=IFCCIRCLEPROFILEDEF(.AREA.,'M20',#99,0.01);
#101=IFCCARTESIANPOINT((0.,0.,0.));
#102=IFCAXIS2PLACEMENT3D(#101,$,$);
#103=IFCDIRECTION((0.,0.,1.));
#104=IFCEXTRUDEDAREASOLID(#100,#102,#103,0.050000000000000003);
#105=IFCSHAPEREPRESENTATION(#16,'Body','SweptSolid',(#104));
#106=IFCPRODUCTDEFINITIONSHAPE($,$,(#105));
#107=IFCOWNERHISTORY(#3,#4,.READWRITE.,.ADDED.,1790799583,#3,#4,1790799583);
#108=IFCMECHANICALFASTENER('0ngMwCpZXBR8_tgsbJDgl4',#107,'M20 8.8',$,$,#113,#122,'B-3',$,$);
#109=IFCCARTESIANPOINT((-0.025000000000000001,0.07425000000000001,-0.079999999999999988));
#110=IFCDIRECTION((1.,0.,0.));
#111=IFCDIRECTION((0.,1.,0.));
#112=IFCAXIS2PLACEMENT3D(#109,#110,#111);
#113=IFCLOCALPLACEMENT($,#112);
#114=IFCCARTESIANPOINT((0.,0.));
#115=IFCAXIS2PLACEMENT2D(#114,$);
#116=IFCCIRCLEPROFILEDEF(.AREA.,'M20',#115,0.01);
#117=IFCCARTESIANPOINT((0.,0.,0.));
#118=IFCAXIS2PLACEMENT3D(#117,$,$);
#119=IFCDIRECTION((0.,0.,1.));
#120=IFCEXTRUDEDAREASOLID(#116,#118,#119,0.050000000000000003);
#121=IFCSHAPEREPRESENTATION(#16,'Body','SweptSolid',(#120));
#122=IFCPRODUCTDEFINITIONSHAPE($,$,(#121));
ENDSEC;
END-ISO-10303-21;
